<?xml version="1.0" standalone="no"?>
<!DOCTYPE svg PUBLIC "-//W3C//DTD SVG 20010904//EN"
 "http://www.w3.org/TR/2001/REC-SVG-20010904/DTD/svg10.dtd">
<svg version="1.0" xmlns="http://www.w3.org/2000/svg"
 width="658.000000pt" height="491.000000pt" viewBox="0 0 658.000000 491.000000"
 preserveAspectRatio="xMidYMid meet">

<g transform="translate(0.000000,491.000000) scale(0.100000,-0.100000)"
fill="#000000" stroke="none">
<path d="M0 2455 l0 -2455 115 0 115 0 0 2455 0 2455 -115 0 -115 0 0 -2455z"/>
<path d="M6370 2455 l0 -2455 105 0 105 0 0 2455 0 2455 -105 0 -105 0 0
-2455z"/>
<path d="M2830 4713 c-517 -53 -982 -240 -1369 -551 -519 -416 -847 -1003
-937 -1672 -22 -167 -22 -473 0 -640 69 -513 270 -964 606 -1354 129 -150 229
-240 285 -256 25 -7 70 -27 99 -45 106 -64 137 -65 244 -8 87 45 174 46 292 3
50 -18 101 -30 131 -30 l49 0 0 515 0 515 22 -5 c13 -3 460 -75 993 -160 874
-139 1873 -299 1933 -309 20 -3 22 0 21 33 -1 27 10 55 46 116 114 190 225
458 279 673 56 224 76 392 76 639 -1 419 -88 782 -276 1154 -311 615 -870
1081 -1537 1283 -244 74 -480 107 -747 104 -96 0 -191 -3 -210 -5z m580 -108
c426 -65 847 -249 1185 -520 39 -30 117 -102 174 -158 410 -403 661 -915 727
-1483 19 -166 14 -480 -11 -639 -39 -252 -123 -512 -237 -737 -66 -131 -88
-161 -88 -119 0 15 -13 20 -75 31 -42 7 -78 17 -81 21 -14 24 -4 111 21 173
40 101 105 445 104 556 0 25 -6 63 -14 84 -12 36 -12 42 4 65 32 45 34 69 13
129 -31 87 -65 248 -59 273 8 30 -9 59 -34 59 -23 0 -21 -6 -93 220 -31 97
-69 197 -86 223 -73 116 -182 201 -298 233 -61 17 -62 18 -47 40 31 48 67 177
72 264 19 290 -158 549 -442 646 -66 22 -98 27 -185 28 -126 1 -188 -13 -300
-67 -118 -57 -220 -159 -278 -277 -54 -110 -72 -183 -72 -295 0 -192 85 -374
230 -493 50 -41 180 -112 228 -124 20 -5 20 -7 -4 -104 -13 -55 -28 -109 -34
-122 -5 -13 -10 -34 -10 -48 0 -57 -140 -293 -189 -318 -66 -35 -67 -32 -135
311 -29 145 -55 265 -58 269 -4 3 -56 -9 -117 -27 -61 -18 -113 -30 -116 -28
-2 3 -8 136 -11 297 -4 160 -10 295 -13 300 -4 7 -1109 508 -1188 539 -10 4
-13 -221 -13 -1107 0 -1054 -1 -1111 -17 -1106 -10 3 -117 23 -238 46 -248 46
-255 48 -255 61 0 20 95 269 136 358 l44 93 -103 -7 c-56 -4 -108 -12 -115
-17 -19 -16 -136 -261 -176 -369 -103 -281 -146 -516 -146 -806 l0 -148 -20
30 c-47 68 -137 237 -183 340 -99 225 -162 454 -193 705 -23 187 -15 524 16
699 139 790 625 1440 1340 1797 255 127 504 201 804 239 142 18 488 13 636
-10z m680 -651 c219 -51 399 -229 455 -449 19 -77 19 -224 0 -300 -19 -70 -60
-165 -73 -165 -4 0 -22 16 -39 35 -32 35 -77 47 -99 25 -19 -19 -164 65 -164
96 0 7 22 56 49 108 55 108 68 163 46 192 -8 10 -15 31 -15 45 0 15 -6 32 -14
38 -8 7 -22 35 -32 62 -21 58 -30 67 -106 107 -124 66 -285 47 -387 -44 -40
-36 -54 -57 -65 -97 -22 -79 -29 -188 -15 -223 7 -16 15 -54 20 -84 4 -30 10
-72 14 -93 5 -23 3 -67 -5 -108 -10 -54 -11 -77 -1 -109 15 -49 69 -95 106
-88 46 9 55 -9 41 -77 -14 -68 -19 -70 -102 -35 -231 99 -390 362 -369 610 7
84 43 200 82 268 83 140 249 260 408 292 67 13 196 11 265 -6z m-1595 -451
c303 -136 551 -247 552 -248 5 -3 13 -165 18 -381 l6 -221 -45 -13 -46 -13 0
-70 c0 -54 -4 -73 -17 -82 -14 -11 -15 -17 -6 -37 7 -16 8 -30 1 -42 -6 -11
-6 -27 0 -44 12 -33 22 -97 28 -175 3 -51 -8 -94 -80 -330 -46 -150 -91 -303
-101 -342 -10 -38 -21 -73 -24 -77 -4 -4 -200 30 -436 75 l-430 82 -3 1089
c-2 1034 -1 1088 15 1082 10 -4 266 -118 568 -253z m2165 -703 c11 -11 17 -26
14 -34 -4 -11 15 -26 70 -53 42 -20 76 -41 76 -45 0 -7 -118 -248 -125 -256
-2 -2 -35 13 -74 32 -39 20 -75 36 -81 36 -5 0 -19 -18 -30 -39 -18 -36 -19
-53 -14 -178 5 -122 9 -147 36 -215 l30 -77 -27 -80 c-24 -73 -84 -171 -104
-171 -11 0 -21 76 -21 154 0 42 -6 73 -20 99 -11 21 -23 58 -27 82 -3 25 -9
45 -13 45 -4 0 -15 -18 -25 -39 -17 -39 -17 -40 8 -73 31 -40 50 -108 41 -145
-13 -57 -53 -111 -97 -132 -114 -55 -244 4 -276 126 -30 111 58 223 175 223
l49 1 27 60 c21 47 25 65 18 85 -7 18 -6 26 3 30 9 3 12 16 9 34 -3 23 0 30
12 30 18 0 20 5 7 29 -15 27 2 45 38 38 30 -6 30 -6 11 13 -24 24 -25 34 -6
49 11 9 20 9 34 2 16 -9 18 -7 15 12 -3 17 2 26 20 36 18 10 46 57 97 165 87
182 105 201 150 156z m10 -865 c47 -20 95 -46 106 -59 27 -31 38 -112 29 -222
-7 -80 -8 -84 -31 -84 -14 0 -27 -7 -31 -15 -7 -19 -55 -45 -83 -45 -40 0
-230 148 -230 179 0 4 14 20 31 37 36 34 72 101 89 164 18 73 21 80 28 80 4 0
46 -16 92 -35z m168 -108 c72 -123 87 -352 23 -371 -21 -7 -151 0 -175 10 -20
8 -10 15 85 61 35 17 36 19 53 113 17 92 15 139 -10 203 -11 28 3 19 24 -16z
m-3410 -1239 c9 -9 15 -9 24 0 14 14 32 16 23 2 -15 -25 -42 -29 -60 -10 -19
21 -7 28 13 8z m39 -145 c-35 -54 -67 -104 -71 -112 -12 -20 112 -10 125 10 8
11 9 10 7 -6 -3 -18 -12 -20 -91 -23 l-87 -3 63 98 c35 54 67 104 71 111 11
19 -88 16 -108 -4 -15 -14 -16 -14 -16 5 0 20 6 21 85 21 l85 0 -63 -97z m145
11 c-4 -105 10 -134 63 -134 53 0 67 29 63 134 -2 71 0 86 12 86 13 0 14 -15
10 -95 -6 -114 -22 -138 -90 -138 -68 0 -83 24 -90 138 -5 90 -4 95 15 95 19
0 20 -6 17 -86z m353 66 c27 -29 0 -101 -38 -100 -7 0 -4 5 6 11 20 12 23 69
5 87 -7 7 -23 12 -36 12 -23 0 -23 0 -20 -110 3 -104 2 -110 -17 -110 -19 0
-20 7 -20 115 l0 115 51 0 c38 0 55 -5 69 -20z m169 -85 c22 -58 46 -110 55
-115 13 -8 11 -9 -10 -10 -22 0 -29 7 -44 46 -16 43 -19 45 -54 42 -34 -3 -37
-6 -45 -45 -7 -32 -15 -43 -28 -43 -17 0 -17 2 -5 23 8 12 29 64 47 115 18 50
35 92 39 92 3 0 24 -48 45 -105z"/>
<path d="M2460 3258 c-1 -7 -2 -65 -3 -128 l-2 -115 -123 -5 c-71 -3 -122 -9
-122 -15 0 -6 51 -12 122 -15 l123 -5 2 -255 c2 -202 5 -255 15 -255 10 0 14
54 16 257 l2 257 122 3 c86 2 123 7 126 16 3 9 -26 12 -122 12 l-125 0 -3 127
c-2 90 -7 128 -15 131 -7 2 -13 -2 -13 -10z"/>
<path d="M4135 1925 c-41 -40 -32 -99 18 -120 81 -34 144 59 82 120 -13 14
-36 25 -50 25 -14 0 -37 -11 -50 -25z"/>
<path d="M2071 467 c-17 -44 -14 -57 14 -57 28 0 30 11 11 55 l-14 30 -11 -28z"/>
<path d="M3380 748 c0 -5 9 -8 19 -8 10 0 22 -7 25 -16 8 -20 8 -342 0 -382
-3 -17 -16 -34 -28 -40 -16 -8 -2 -11 64 -10 70 0 80 2 58 11 -14 6 -29 20
-32 31 -3 12 -6 105 -6 208 l0 188 24 6 c31 7 91 -19 111 -49 46 -71 19 -145
-62 -170 -42 -13 -44 -15 -18 -16 46 -2 116 38 137 79 37 68 3 153 -67 166
-49 9 -225 10 -225 2z"/>
<path d="M3800 685 c0 -3 12 -10 26 -15 l25 -10 -3 -170 c-3 -156 -5 -170 -23
-184 -18 -13 -8 -14 97 -15 106 -1 118 1 128 18 5 11 10 28 10 38 0 15 -2 14
-16 -5 -14 -20 -23 -23 -77 -20 l-62 3 -3 83 -3 82 48 0 c51 0 67 -6 76 -30 3
-9 6 -4 6 12 1 14 4 34 8 43 5 15 3 16 -15 6 -11 -6 -43 -11 -71 -11 l-51 0 0
75 0 75 54 0 c44 0 58 -4 69 -21 14 -19 15 -19 19 15 l4 36 -123 0 c-68 0
-123 -2 -123 -5z"/>
<path d="M4156 668 c-11 -42 -7 -54 10 -30 13 19 24 22 80 22 l66 0 -4 -170
c-3 -155 -5 -170 -23 -184 -18 -13 -13 -14 55 -15 72 0 74 1 48 15 l-28 15 0
169 0 170 55 0 c42 0 60 -5 75 -20 l20 -20 0 35 0 35 -174 0 c-172 0 -174 0
-180 -22z"/>
<path d="M4610 685 c0 -3 11 -10 25 -15 l25 -10 0 -165 c0 -152 -2 -167 -20
-185 l-20 -20 73 0 c69 1 71 1 45 16 -26 14 -28 19 -28 84 l0 70 39 0 c36 0
43 -5 97 -71 33 -41 73 -78 91 -85 19 -8 69 -14 120 -14 76 0 84 2 68 14 -18
13 -18 15 4 75 l23 61 68 0 67 0 27 -61 c14 -33 26 -66 26 -73 0 -9 18 -13 58
-14 56 -2 57 -1 30 14 -32 17 -50 52 -133 247 -32 76 -63 136 -68 134 -6 -2
-45 -86 -86 -187 -84 -202 -92 -212 -152 -182 -18 9 -59 47 -92 85 l-60 67 20
23 c31 33 43 62 43 99 0 43 -28 74 -77 87 -39 11 -213 15 -213 6z m185 -29
c38 -16 55 -42 55 -85 0 -69 -31 -96 -101 -89 l-34 3 -3 79 c-2 44 -1 85 2 93
7 17 38 17 81 -1z m434 -68 c5 -13 18 -47 30 -75 l21 -53 -60 0 -59 0 27 75
c15 41 28 75 30 75 1 0 6 -10 11 -22z"/>
<path d="M2455 635 c-27 -26 -32 -63 -14 -98 6 -12 41 -50 77 -83 58 -56 64
-65 58 -90 -9 -38 -32 -54 -76 -54 -39 0 -64 19 -73 55 -2 11 -5 1 -6 -21 -1
-49 7 -54 81 -54 41 0 54 5 79 29 23 23 29 38 29 72 0 40 -5 47 -75 114 -41
40 -75 77 -75 84 0 17 46 61 64 61 27 0 66 -23 67 -39 0 -10 4 -7 10 7 14 35
4 42 -62 42 -50 0 -64 -4 -84 -25z"/>
<path d="M2693 591 c12 -4 42 -61 82 -151 35 -80 67 -146 72 -147 4 -2 39 64
77 146 40 89 75 152 85 154 9 3 -2 5 -24 6 -37 1 -40 -1 -41 -27 -1 -28 -74
-212 -85 -212 -3 0 -26 51 -51 113 -32 79 -43 114 -35 119 7 4 -13 7 -43 7
-33 0 -48 -3 -37 -8z"/>
<path d="M3017 344 c-4 -4 -7 -16 -7 -26 0 -13 7 -18 26 -18 21 0 25 4 22 22
-3 23 -27 35 -41 22z"/>
</g>
</svg>
